<svg preserveAspectRatio="xMidYMid meet" data-bbox="0.004 0 75.555 38.005" viewBox="0.004 0 75.555 38.005" xmlns="http://www.w3.org/2000/svg" data-type="color" role="presentation" aria-hidden="true" aria-label="">
    <g>
        <g>
            <path d="M43.56 5h29.58c3.22 0 3.23-5 0-5H43.56c-3.22 0-3.22 5 0 5z" fill="#ffffff" data-color="1"></path>
            <path d="M43.56 38h29.58c3.22 0 3.23-5 0-5H43.56c-3.22 0-3.22 5 0 5z" fill="#ffffff" data-color="1"></path>
            <path d="M43.56 21.5h29.58c3.22 0 3.23-5 0-5H43.56c-3.22 0-3.22 5 0 5z" fill="#ffffff" data-color="1"></path>
            <path d="m4.27 37.27 33-33C39.55 2 36-1.54 33.74.74l-33 33C-1.54 36 2 39.55 4.27 37.27z" fill="#ffffff" data-color="1"></path>
            <path d="m37.27 33.74-33-33C2-1.54-1.54 2 .74 4.27l33 33c2.26 2.28 5.81-1.27 3.53-3.53z" fill="#ffffff" data-color="1"></path>
        </g>
    </g>
</svg>